<svg width="30" height="30" viewBox="0 0 30 30" fill="none" xmlns="http://www.w3.org/2000/svg">
  <path fill-rule="evenodd" clip-rule="evenodd" d="M9.00847 13.9362C9.00847 15.5751 8.86885 17.6245 9.72339 18.7272C10.382 19.577 11.4954 19.9775 13.0731 19.9775C14.5128 19.9775 17.5182 20.106 18.7235 19.749C21.4695 18.9357 20.9633 15.7722 20.9633 13.1258C20.9633 11.7793 20.8342 10.9594 20.1901 10.1568C19.6299 9.45868 18.6566 9 17.3768 9H12.5152C11.2628 9 10.0796 9.63236 9.61807 10.374C9.37383 10.7664 9.11373 11.3887 9.08743 11.9463C9.05395 12.6573 9.00844 13.1924 9.00844 13.9362H9.00847ZM17.4565 11.5049C17.4565 12.5039 18.8911 12.4537 18.8911 11.5049C18.8911 10.6907 17.4565 10.6053 17.4565 11.5049ZM14.9859 16.2938C14.0518 16.2938 13.0731 15.5281 13.0731 14.6729V14.3045C13.0731 13.4027 13.9108 12.6837 15.1453 12.6837C17.4813 12.6837 17.6193 16.2938 14.9859 16.2938ZM11.9573 14.2309C11.9573 15.2506 12.0612 15.7735 12.9315 16.572C13.9959 17.5485 15.9064 17.6206 17.1187 16.4972C18.4116 15.2991 18.3572 13.6349 17.239 12.5163C15.4445 10.721 11.9573 11.9337 11.9573 14.2309H11.9573Z" fill="#DCF6FF" />
  <rect x="0.226737" y="0.226737" width="29.5465" height="29.5465" rx="2.04063" stroke="#DCF6FF" stroke-width="0.453473" />
</svg>
