<svg width="134" height="26" viewBox="0 0 134 26" fill="none" xmlns="http://www.w3.org/2000/svg">
<mask id="path-1-inside-1_2009_846" fill="white">
<path d="M119.642 5.47327V4.78906H120.327V5.47327H119.642Z"/>
</mask>
<path d="M119.642 5.47327V4.78906H120.327V5.47327H119.642Z" fill="white"/>
<path d="M119.642 5.47327H118.642V6.47327H119.642V5.47327ZM119.642 4.78906V3.78906H118.642V4.78906H119.642ZM120.327 4.78906H121.327V3.78906H120.327V4.78906ZM120.327 5.47327V6.47327H121.327V5.47327H120.327ZM120.642 5.47327V4.78906H118.642V5.47327H120.642ZM119.642 5.78906H120.327V3.78906H119.642V5.78906ZM119.327 4.78906V5.47327H121.327V4.78906H119.327ZM120.327 4.47327H119.642V6.47327H120.327V4.47327Z" fill="white" fill-opacity="0.1" mask="url(#path-1-inside-1_2009_846)"/>
<mask id="path-3-inside-2_2009_846" fill="white">
<path d="M121.01 2.73225C121.01 1.8991 121.196 1.23441 121.567 0.741261C121.939 0.245046 122.437 0 123.061 0C123.684 0 124.182 0.245046 124.554 0.738198C124.926 1.23135 125.112 1.89603 125.112 2.73225C125.112 3.56846 124.926 4.23314 124.554 4.72936C124.182 5.22557 123.684 5.47368 123.061 5.47368C122.44 5.47368 121.942 5.22557 121.567 4.72936C121.196 4.23008 121.01 3.5654 121.01 2.73225ZM121.591 2.73225C121.591 3.43369 121.72 3.97891 121.981 4.37098C122.242 4.76305 122.602 4.95909 123.061 4.95909C123.52 4.95909 123.882 4.76305 124.14 4.37098C124.401 3.97891 124.53 3.43369 124.53 2.73225C124.53 2.02775 124.401 1.47946 124.14 1.09045C123.879 0.698378 123.52 0.502343 123.061 0.502343C122.602 0.502343 122.239 0.698378 121.981 1.09045C121.72 1.47946 121.591 2.02775 121.591 2.73225Z"/>
</mask>
<path d="M121.01 2.73225C121.01 1.8991 121.196 1.23441 121.567 0.741261C121.939 0.245046 122.437 0 123.061 0C123.684 0 124.182 0.245046 124.554 0.738198C124.926 1.23135 125.112 1.89603 125.112 2.73225C125.112 3.56846 124.926 4.23314 124.554 4.72936C124.182 5.22557 123.684 5.47368 123.061 5.47368C122.44 5.47368 121.942 5.22557 121.567 4.72936C121.196 4.23008 121.01 3.5654 121.01 2.73225ZM121.591 2.73225C121.591 3.43369 121.72 3.97891 121.981 4.37098C122.242 4.76305 122.602 4.95909 123.061 4.95909C123.52 4.95909 123.882 4.76305 124.14 4.37098C124.401 3.97891 124.53 3.43369 124.53 2.73225C124.53 2.02775 124.401 1.47946 124.14 1.09045C123.879 0.698378 123.52 0.502343 123.061 0.502343C122.602 0.502343 122.239 0.698378 121.981 1.09045C121.72 1.47946 121.591 2.02775 121.591 2.73225Z" fill="white"/>
<path d="M121.567 0.741261L122.366 1.34329L122.368 1.34091L121.567 0.741261ZM121.567 4.72936L120.765 5.32666L120.77 5.33209L121.567 4.72936ZM124.14 4.37098L123.308 3.81702L123.305 3.82146L124.14 4.37098ZM124.14 1.09045L123.308 1.64441L123.31 1.64742L124.14 1.09045ZM121.981 1.09045L122.812 1.64744L122.817 1.63997L121.981 1.09045ZM122.01 2.73225C122.01 2.04082 122.164 1.61107 122.366 1.34329L120.769 0.139236C120.227 0.85776 120.01 1.75737 120.01 2.73225H122.01ZM122.368 1.34091C122.547 1.10138 122.746 1 123.061 1V-1C122.128 -1 121.331 -0.611289 120.767 0.141613L122.368 1.34091ZM123.061 1C123.376 1 123.576 1.10204 123.756 1.34022L125.353 0.136172C124.788 -0.61195 123.993 -1 123.061 -1V1ZM123.756 1.34022C123.957 1.60772 124.112 2.03728 124.112 2.73225H126.112C126.112 1.75479 125.894 0.854982 125.353 0.136172L123.756 1.34022ZM124.112 2.73225C124.112 3.42631 123.958 3.85766 123.754 4.12971L125.354 5.32901C125.894 4.60863 126.112 3.71062 126.112 2.73225H124.112ZM123.754 4.12971C123.572 4.37218 123.372 4.47368 123.061 4.47368V6.47368C123.997 6.47368 124.792 6.07897 125.354 5.32901L123.754 4.12971ZM123.061 4.47368C122.754 4.47368 122.552 4.3732 122.365 4.12663L120.77 5.33209C121.333 6.07795 122.126 6.47368 123.061 6.47368V4.47368ZM122.37 4.13207C122.163 3.85518 122.01 3.42187 122.01 2.73225H120.01C120.01 3.70893 120.228 4.60498 120.765 5.32664L122.37 4.13207ZM120.591 2.73225C120.591 3.53841 120.737 4.30579 121.149 4.92494L122.814 3.81703C122.704 3.65203 122.591 3.32897 122.591 2.73225H120.591ZM121.149 4.92494C121.589 5.58677 122.257 5.95909 123.061 5.95909V3.95909C122.978 3.95909 122.941 3.94278 122.925 3.93392C122.908 3.9245 122.868 3.89816 122.814 3.81703L121.149 4.92494ZM123.061 5.95909C123.861 5.95909 124.536 5.58935 124.976 4.9205L123.305 3.82146C123.254 3.89885 123.215 3.92415 123.198 3.93351C123.181 3.9426 123.144 3.95909 123.061 3.95909V5.95909ZM124.973 4.92494C125.385 4.30579 125.53 3.53841 125.53 2.73225H123.53C123.53 3.32897 123.417 3.65203 123.308 3.81703L124.973 4.92494ZM125.53 2.73225C125.53 1.92587 125.386 1.15237 124.971 0.533482L123.31 1.64742C123.416 1.80655 123.53 2.12962 123.53 2.73225H125.53ZM124.973 0.536494C124.532 -0.125325 123.865 -0.497657 123.061 -0.497657V1.50234C123.143 1.50234 123.18 1.51865 123.196 1.5275C123.214 1.53693 123.254 1.56326 123.308 1.6444L124.973 0.536494ZM123.061 -0.497657C122.26 -0.497657 121.586 -0.127931 121.146 0.540931L122.817 1.63997C122.868 1.5626 122.906 1.53729 122.923 1.52793C122.94 1.51883 122.978 1.50234 123.061 1.50234V-0.497657ZM121.151 0.533482C120.736 1.15237 120.591 1.92587 120.591 2.73225H122.591C122.591 2.12962 122.705 1.80655 122.812 1.64742L121.151 0.533482Z" fill="white" fill-opacity="0.1" mask="url(#path-3-inside-2_2009_846)"/>
<mask id="path-5-inside-3_2009_846" fill="white">
<path d="M125.796 5.47368V0H127.148C127.823 0 128.313 0.113902 128.62 0.344873C128.924 0.575843 129.077 0.942866 129.077 1.44594C129.077 1.80347 128.994 2.09772 128.829 2.33185C128.662 2.56599 128.414 2.73684 128.079 2.84442L129.214 5.47368H128.628L127.566 2.98996H126.325V5.47368H125.796ZM127.148 0.509401H126.32V2.48372H127.128C127.625 2.48372 127.984 2.40462 128.205 2.24959C128.425 2.09455 128.536 1.8446 128.536 1.49973C128.536 1.1327 128.439 0.876423 128.241 0.727716C128.043 0.579009 127.68 0.509401 127.148 0.509401Z"/>
</mask>
<path d="M125.796 5.47368V0H127.148C127.823 0 128.313 0.113902 128.62 0.344873C128.924 0.575843 129.077 0.942866 129.077 1.44594C129.077 1.80347 128.994 2.09772 128.829 2.33185C128.662 2.56599 128.414 2.73684 128.079 2.84442L129.214 5.47368H128.628L127.566 2.98996H126.325V5.47368H125.796ZM127.148 0.509401H126.32V2.48372H127.128C127.625 2.48372 127.984 2.40462 128.205 2.24959C128.425 2.09455 128.536 1.8446 128.536 1.49973C128.536 1.1327 128.439 0.876423 128.241 0.727716C128.043 0.579009 127.68 0.509401 127.148 0.509401Z" fill="white"/>
<path d="M125.796 5.47368H124.796V6.47368H125.796V5.47368ZM125.796 0V-1H124.796V0H125.796ZM128.62 0.344873L129.225 -0.451304L129.222 -0.453947L128.62 0.344873ZM128.829 2.33185L129.643 2.91323L129.647 2.90675L128.829 2.33185ZM128.079 2.84442L127.773 1.89241L126.725 2.22952L127.161 3.24069L128.079 2.84442ZM129.214 5.47368V6.47368H130.735L130.132 5.07741L129.214 5.47368ZM128.628 5.47368L127.709 5.86693L127.969 6.47368H128.628V5.47368ZM127.566 2.98996L128.486 2.59671L128.226 1.98996H127.566V2.98996ZM126.325 2.98996V1.98996H125.325V2.98996H126.325ZM126.325 5.47368V6.47368H127.325V5.47368H126.325ZM126.32 0.509401V-0.490599H125.32V0.509401H126.32ZM126.32 2.48372H125.32V3.48372H126.32V2.48372ZM126.796 5.47368V0H124.796V5.47368H126.796ZM125.796 1H127.148V-1H125.796V1ZM127.148 1C127.755 1 127.975 1.11098 128.019 1.14369L129.222 -0.453947C128.652 -0.883178 127.891 -1 127.148 -1V1ZM128.015 1.14104C128.021 1.14545 128.028 1.15041 128.039 1.17741C128.054 1.21199 128.077 1.29313 128.077 1.44594H130.077C130.077 0.735547 129.851 0.0244495 129.225 -0.451296L128.015 1.14104ZM128.077 1.44594C128.077 1.64495 128.033 1.72611 128.011 1.75696L129.647 2.90675C129.955 2.46933 130.077 1.96198 130.077 1.44594H128.077ZM128.016 1.75049C127.997 1.77662 127.946 1.83697 127.773 1.89241L128.385 3.79642C128.882 3.63671 129.327 3.35535 129.643 2.91322L128.016 1.75049ZM127.161 3.24069L128.296 5.86996L130.132 5.07741L128.997 2.44815L127.161 3.24069ZM129.214 4.47368H128.628V6.47368H129.214V4.47368ZM129.548 5.08044L128.486 2.59671L126.647 3.38321L127.709 5.86693L129.548 5.08044ZM127.566 1.98996H126.325V3.98996H127.566V1.98996ZM125.325 2.98996V5.47368H127.325V2.98996H125.325ZM126.325 4.47368H125.796V6.47368H126.325V4.47368ZM127.148 -0.490599H126.32V1.5094H127.148V-0.490599ZM125.32 0.509401V2.48372H127.32V0.509401H125.32ZM126.32 3.48372H127.128V1.48372H126.32V3.48372ZM127.128 3.48372C127.684 3.48372 128.302 3.4041 128.78 3.06734L127.629 1.43184C127.66 1.41043 127.65 1.42744 127.557 1.44777C127.466 1.4675 127.327 1.48372 127.128 1.48372V3.48372ZM128.78 3.06734C129.338 2.67511 129.536 2.07239 129.536 1.49973H127.536C127.536 1.56694 127.525 1.57126 127.539 1.5405C127.546 1.52456 127.558 1.50383 127.576 1.48217C127.593 1.46046 127.612 1.44364 127.629 1.43184L128.78 3.06734ZM129.536 1.49973C129.536 0.978527 129.396 0.344819 128.842 -0.0718286L127.64 1.52726C127.61 1.50427 127.583 1.47713 127.563 1.44904C127.543 1.42157 127.533 1.39945 127.529 1.38896C127.525 1.37915 127.527 1.38136 127.53 1.4003C127.533 1.41934 127.536 1.4516 127.536 1.49973H129.536ZM128.842 -0.0718286C128.576 -0.271003 128.274 -0.366764 128.014 -0.418196C127.746 -0.471244 127.452 -0.490599 127.148 -0.490599V1.5094C127.377 1.5094 127.53 1.52485 127.626 1.54378C127.73 1.56433 127.707 1.57773 127.64 1.52726L128.842 -0.0718286Z" fill="white" fill-opacity="0.1" mask="url(#path-5-inside-3_2009_846)"/>
<mask id="path-7-inside-4_2009_846" fill="white">
<path d="M133.478 5.38184L133.456 4.80325C133.287 5.02979 133.086 5.19816 132.851 5.30837C132.615 5.41858 132.339 5.47368 132.022 5.47368C131.366 5.47368 130.848 5.23184 130.468 4.74508C130.086 4.26139 129.897 3.60014 129.897 2.76133C129.897 1.88579 130.086 1.20617 130.462 0.725537C130.839 0.241845 131.366 0 132.047 0C132.524 0 132.92 0.128575 133.233 0.38879C133.547 0.649004 133.78 1.03473 133.933 1.5521L133.318 1.67149C133.211 1.2827 133.051 0.991875 132.835 0.795949C132.618 0.600023 132.348 0.505122 132.025 0.505122C131.542 0.505122 131.168 0.697986 130.908 1.08065C130.647 1.46332 130.516 2.0113 130.516 2.72153C130.516 3.4287 130.65 3.97975 130.924 4.37466C131.197 4.76957 131.576 4.9655 132.063 4.9655C132.468 4.9655 132.785 4.85223 133.023 4.62263C133.259 4.39609 133.378 4.08383 133.378 3.69198V3.31544H132.122V2.81031H133.999V5.38184H133.478Z"/>
</mask>
<path d="M133.478 5.38184L133.456 4.80325C133.287 5.02979 133.086 5.19816 132.851 5.30837C132.615 5.41858 132.339 5.47368 132.022 5.47368C131.366 5.47368 130.848 5.23184 130.468 4.74508C130.086 4.26139 129.897 3.60014 129.897 2.76133C129.897 1.88579 130.086 1.20617 130.462 0.725537C130.839 0.241845 131.366 0 132.047 0C132.524 0 132.92 0.128575 133.233 0.38879C133.547 0.649004 133.78 1.03473 133.933 1.5521L133.318 1.67149C133.211 1.2827 133.051 0.991875 132.835 0.795949C132.618 0.600023 132.348 0.505122 132.025 0.505122C131.542 0.505122 131.168 0.697986 130.908 1.08065C130.647 1.46332 130.516 2.0113 130.516 2.72153C130.516 3.4287 130.65 3.97975 130.924 4.37466C131.197 4.76957 131.576 4.9655 132.063 4.9655C132.468 4.9655 132.785 4.85223 133.023 4.62263C133.259 4.39609 133.378 4.08383 133.378 3.69198V3.31544H132.122V2.81031H133.999V5.38184H133.478Z" fill="white"/>
<path d="M133.456 4.80325L134.456 4.7653L134.348 1.94151L132.656 4.20421L133.456 4.80325ZM130.468 4.74508L131.257 4.12994L131.252 4.12441L130.468 4.74508ZM130.462 0.725537L131.249 1.34233L131.251 1.3399L130.462 0.725537ZM133.933 1.5521L134.124 2.53378L135.206 2.32376L134.892 1.26717L133.933 1.5521ZM133.318 1.67149L132.354 1.93617L132.599 2.82972L133.509 2.65317L133.318 1.67149ZM133.023 4.62263L132.33 3.90211L132.33 3.90217L133.023 4.62263ZM133.378 3.31544H134.378V2.31544H133.378V3.31544ZM132.122 3.31544H131.122V4.31544H132.122V3.31544ZM132.122 2.81031V1.81031H131.122V2.81031H132.122ZM133.999 2.81031H134.999V1.81031H133.999V2.81031ZM133.999 5.38184V6.38184H134.999V5.38184H133.999ZM134.478 5.3439L134.456 4.7653L132.457 4.84119L132.479 5.41979L134.478 5.3439ZM132.656 4.20421C132.574 4.31327 132.498 4.36932 132.427 4.40272L133.275 6.21402C133.674 6.027 134 5.7463 134.257 5.40228L132.656 4.20421ZM132.427 4.40272C132.35 4.43867 132.224 4.47368 132.022 4.47368V6.47368C132.454 6.47368 132.881 6.39848 133.275 6.21402L132.427 4.40272ZM132.022 4.47368C131.65 4.47368 131.433 4.35542 131.257 4.12996L129.68 5.36021C130.264 6.10826 131.082 6.47368 132.022 6.47368V4.47368ZM131.252 4.12441C131.054 3.87357 130.897 3.45885 130.897 2.76133H128.897C128.897 3.74143 129.117 4.64921 129.684 5.36576L131.252 4.12441ZM130.897 2.76133C130.897 2.01458 131.059 1.58457 131.249 1.34233L129.675 0.108748C129.112 0.827766 128.897 1.75699 128.897 2.76133H130.897ZM131.251 1.3399C131.416 1.12821 131.636 1 132.047 1V-1C131.096 -1 130.262 -0.644524 129.673 0.111175L131.251 1.3399ZM132.047 1C132.335 1 132.492 1.07317 132.595 1.15861L133.872 -0.38103C133.347 -0.816023 132.713 -1 132.047 -1V1ZM132.595 1.15861C132.715 1.25767 132.86 1.4494 132.975 1.83703L134.892 1.26717C134.7 0.620066 134.38 0.0403418 133.872 -0.38103L132.595 1.15861ZM133.743 0.570421L133.128 0.689813L133.509 2.65317L134.124 2.53378L133.743 0.570421ZM134.283 1.40682C134.144 0.903176 133.908 0.418755 133.506 0.0544029L132.164 1.53749C132.194 1.56499 132.279 1.66223 132.354 1.93617L134.283 1.40682ZM133.506 0.0544029C133.08 -0.330663 132.56 -0.494878 132.025 -0.494878V1.50512C132.088 1.50512 132.121 1.51426 132.134 1.51876C132.144 1.52252 132.152 1.52689 132.164 1.53749L133.506 0.0544029ZM132.025 -0.494878C131.227 -0.494878 130.537 -0.151435 130.081 0.517929L131.734 1.64338C131.8 1.54741 131.857 1.50512 132.025 1.50512V-0.494878ZM130.081 0.517929C129.663 1.13245 129.516 1.90877 129.516 2.72153H131.516C131.516 2.11384 131.632 1.7942 131.734 1.64338L130.081 0.517929ZM129.516 2.72153C129.516 3.53851 129.669 4.31818 130.101 4.94337L131.746 3.80595C131.632 3.64131 131.516 3.3189 131.516 2.72153H129.516ZM130.101 4.94337C130.565 5.61458 131.256 5.9655 132.063 5.9655V3.9655C131.897 3.9655 131.828 3.92457 131.746 3.80595L130.101 4.94337ZM132.063 5.9655C132.666 5.9655 133.252 5.79009 133.717 5.34309L132.33 3.90217C132.317 3.91437 132.27 3.9655 132.063 3.9655V5.9655ZM133.717 5.34315C134.186 4.89163 134.378 4.29819 134.378 3.69198H132.378C132.378 3.78689 132.363 3.83932 132.354 3.86302C132.347 3.88344 132.339 3.89303 132.33 3.90211L133.717 5.34315ZM134.378 3.69198V3.31544H132.378V3.69198H134.378ZM133.378 2.31544H132.122V4.31544H133.378V2.31544ZM133.122 3.31544V2.81031H131.122V3.31544H133.122ZM132.122 3.81031H133.999V1.81031H132.122V3.81031ZM132.999 2.81031V5.38184H134.999V2.81031H132.999ZM133.999 4.38184H133.478V6.38184H133.999V4.38184Z" fill="white" fill-opacity="0.1" mask="url(#path-7-inside-4_2009_846)"/>
<path d="M72.3195 25.9941C72.1747 25.9941 72.0601 25.9436 71.9484 25.8337C71.8368 25.7238 71.7855 25.611 71.7855 25.4684V0.564249C71.7855 0.392005 71.8338 0.261337 71.9394 0.151457C72.039 0.0475163 72.1566 0 72.3195 0H80.3751C84.0952 0 87.0157 0.876071 89.0553 2.60149C91.0797 4.31502 92.1538 6.82147 92.2564 10.0585C92.2805 10.8039 92.2956 11.7928 92.2956 13.0015C92.2956 14.2102 92.2836 15.1842 92.2564 15.9029C92.003 22.6977 88.1833 26 80.5713 26H72.3195V25.9941ZM78.233 21.1059H80.3721C82.122 21.1059 83.4465 20.6753 84.3094 19.8289C85.1663 18.9855 85.6309 17.6461 85.6852 15.8524C85.7365 15.1189 85.7636 14.1389 85.7636 12.9599C85.7636 11.7809 85.7365 10.8158 85.6852 10.0911C85.6309 8.35979 85.1301 7.03826 84.2038 6.18001C83.2776 5.32473 81.9229 4.89115 80.179 4.89115H78.236V21.1059H78.233Z" fill="white"/>
<path d="M72.8195 25.5V25.4941H72.3195C72.319 25.4941 72.3185 25.4941 72.318 25.494C72.3141 25.4911 72.3078 25.4859 72.2992 25.4774C72.293 25.4713 72.2886 25.4664 72.2855 25.4629V0.564249C72.2855 0.525029 72.2909 0.510227 72.2915 0.508768C72.2919 0.507758 72.2921 0.507417 72.2924 0.506858C72.2928 0.506327 72.294 0.504363 72.2971 0.500937C72.3022 0.500442 72.3096 0.5 72.3195 0.5H80.3751C84.0229 0.5 86.8128 1.35934 88.7323 2.98321C90.6251 4.58531 91.6575 6.94459 91.7567 10.0743L91.7567 10.0747C91.7806 10.8132 91.7956 11.7965 91.7956 13.0015C91.7956 14.2082 91.7836 15.1749 91.7568 15.884L91.7568 15.8843C91.6334 19.1918 90.6475 21.5646 88.8464 23.1212C87.0349 24.6867 84.315 25.5 80.5713 25.5H72.8195ZM84.6595 20.1858L84.6602 20.1852C85.6432 19.2176 86.1269 17.7334 86.1847 15.8775C86.2366 15.129 86.2636 14.1397 86.2636 12.9599C86.2636 11.7801 86.2366 10.8054 86.1846 10.0656C86.1261 8.25588 85.598 6.7902 84.5437 5.81325L84.543 5.81267C83.494 4.84402 82 4.39115 80.179 4.39115H78.236H77.736V4.89115V21.1059H78.233V21.6059H78.236H78.736H80.3721C82.1948 21.6059 83.6686 21.1578 84.6595 20.1858Z" stroke="white" stroke-opacity="0.1"/>
<path d="M103.594 25.9993C100.528 25.9993 98.0912 25.1921 96.3513 23.6044C94.6175 22.0196 93.711 19.6662 93.6624 16.6065V15.4254C93.7627 12.5289 94.6935 10.2289 96.4334 8.60559C98.1733 6.97928 100.57 6.15723 103.554 6.15723C105.717 6.15723 107.566 6.58161 109.051 7.42147C110.526 8.2554 111.642 9.41874 112.372 10.8788C113.112 12.3597 113.489 14.0691 113.489 15.9625V16.9211C113.489 17.0903 113.437 17.2149 113.325 17.3247C113.212 17.4345 113.081 17.485 112.911 17.485H100.008V18.1468C100.035 19.3902 100.342 20.4082 100.917 21.1827C101.525 22.0018 102.401 22.4143 103.515 22.4143C104.23 22.4143 104.82 22.2689 105.273 21.9781C105.684 21.7169 106.079 21.3727 106.444 20.9602C106.718 20.6634 106.839 20.6011 106.864 20.5922C106.894 20.5803 107.019 20.5358 107.369 20.5358H112.518C112.649 20.5358 112.753 20.5714 112.841 20.6456C112.923 20.7138 112.938 20.7702 112.938 20.8326C112.938 21.3875 112.582 22.082 111.883 22.8921C111.159 23.732 110.073 24.468 108.661 25.0764C107.244 25.6877 105.541 25.9993 103.594 25.9993ZM103.554 9.62351C102.42 9.62351 101.525 10.0212 100.905 10.8076C100.309 11.5614 100.008 12.612 100.008 13.9297V14.4401H107.144V13.9297C107.144 12.609 106.833 11.5555 106.222 10.8047C105.586 10.0212 104.689 9.62351 103.554 9.62351Z" fill="white"/>
<path d="M96.7745 8.97118L96.7749 8.97086C98.4 7.45183 100.663 6.65723 103.554 6.65723C105.654 6.65723 107.413 7.06933 108.805 7.85664L108.805 7.85674C110.197 8.64346 111.241 9.73442 111.925 11.1021C112.625 12.5047 112.989 14.136 112.989 15.9625V16.9211C112.989 16.938 112.987 16.9479 112.987 16.9526C112.986 16.9536 112.986 16.9544 112.986 16.955C112.985 16.9569 112.982 16.9608 112.975 16.9668C112.968 16.9737 112.964 16.9768 112.962 16.978C112.961 16.9791 112.96 16.9794 112.959 16.9797L112.959 16.9797C112.958 16.9801 112.946 16.985 112.911 16.985H100.008H99.5075V17.485V18.1468H99.5074L99.5077 18.1578C99.5367 19.4761 99.8638 20.6026 100.516 21.4807L100.516 21.4809C101.229 22.4409 102.262 22.9143 103.515 22.9143C104.293 22.9143 104.986 22.7563 105.542 22.3993C105.996 22.1108 106.424 21.7361 106.815 21.2955C106.938 21.1629 107.016 21.093 107.059 21.0596C107.061 21.058 107.062 21.0565 107.064 21.0551C107.108 21.0473 107.202 21.0358 107.369 21.0358H112.416C112.341 21.3983 112.073 21.907 111.504 22.5654L111.504 22.5657C110.845 23.3304 109.831 24.0279 108.464 24.6172L108.463 24.6173C107.122 25.1957 105.489 25.4993 103.594 25.4993C100.614 25.4993 98.3113 24.716 96.6883 23.2351C95.0851 21.7695 94.2102 19.5657 94.1624 16.6025V15.4341C94.2608 12.6427 95.1541 10.483 96.7745 8.97118ZM107.035 21.0614C107.036 21.0611 107.037 21.0608 107.039 21.0605C107.037 21.0609 107.036 21.0613 107.035 21.0615C107.034 21.062 107.033 21.0622 107.033 21.0622C107.033 21.0622 107.034 21.0619 107.035 21.0614ZM107.644 13.9297C107.644 12.536 107.316 11.3569 106.61 10.4891C105.867 9.57357 104.818 9.12351 103.554 9.12351C102.291 9.12351 101.242 9.57354 100.512 10.4979C99.8244 11.3679 99.5075 12.5414 99.5075 13.9297V14.4401V14.9401H100.008H107.144H107.644V14.4401V13.9297Z" stroke="white" stroke-opacity="0.1"/>
<path d="M121.189 25.9987C120.934 25.9987 120.749 25.951 120.637 25.8557C120.494 25.7335 120.37 25.5487 120.267 25.3043L112.816 7.43988C112.819 7.43988 112.806 7.39219 112.806 7.29086C112.806 7.1478 112.846 7.04646 112.931 6.96301C113.019 6.87658 113.122 6.84082 113.265 6.84082H117.933C118.306 6.84082 118.537 7.00474 118.7 7.38623L123.381 19.9932L128.112 7.36537C128.167 7.22529 128.258 7.09713 128.391 6.97494C128.492 6.88553 128.634 6.84082 128.835 6.84082H133.542C133.666 6.84082 133.766 6.88254 133.87 6.97494C133.949 7.04945 133.991 7.1329 134 7.24615L133.946 7.4667L126.546 25.3073C126.446 25.5457 126.318 25.7275 126.167 25.8467C126.039 25.948 125.842 25.9987 125.584 25.9987H121.189Z" fill="white"/>
<path d="M123.849 20.1687L128.579 7.54456C128.6 7.49056 128.64 7.42781 128.719 7.35348C128.719 7.3532 128.72 7.3529 128.721 7.35256C128.736 7.34819 128.77 7.34082 128.835 7.34082H133.456L126.085 25.1136C126.085 25.1139 126.085 25.1143 126.085 25.1146C126.006 25.3005 125.923 25.4022 125.858 25.4535L125.856 25.455C125.856 25.455 125.841 25.4657 125.799 25.4768C125.752 25.4889 125.682 25.4987 125.584 25.4987H121.189C121.091 25.4987 121.025 25.4893 120.985 25.4789C120.969 25.4747 120.959 25.471 120.954 25.4689C120.89 25.4112 120.808 25.3019 120.728 25.1108C120.727 25.1104 120.727 25.1101 120.727 25.1098L113.316 7.34082H117.933C118.043 7.34082 118.085 7.36383 118.106 7.37809C118.13 7.39563 118.179 7.44183 118.236 7.57303L122.912 20.1673L123.378 21.4241L123.849 20.1687ZM120.267 25.3043L113.008 7.90159L126.167 25.8467C126.039 25.948 125.842 25.9987 125.584 25.9987H121.189C120.934 25.9987 120.749 25.951 120.637 25.8557C120.494 25.7335 120.37 25.5487 120.267 25.3043Z" stroke="white" stroke-opacity="0.1"/>
<path d="M18.4561 5.47368H0V0H12.9854C16.0084 0 18.4591 2.45065 18.4591 5.47368H18.4561Z" fill="#7BD3F7"/>
<path d="M12.9854 0.5C15.5635 0.5 17.6835 2.46158 17.9343 4.97368H0.5V0.5H12.9854Z" stroke="white" stroke-opacity="0.1"/>
<path d="M29.3978 0H23.2448V5.47368H29.3978V0Z" fill="#4C72B6"/>
<path d="M23.7448 4.97368V0.5H28.8978V4.97368H23.7448Z" stroke="white" stroke-opacity="0.1"/>
<path d="M29.3979 20.5264H23.2449V26.0001H29.3979V20.5264Z" fill="#7BD3F7"/>
<path d="M23.7449 25.5001V21.0264H28.8979V25.5001H23.7449Z" stroke="white" stroke-opacity="0.1"/>
<path d="M42.387 0H36.234V5.47368H42.387V0Z" fill="#4272B8"/>
<path d="M36.734 4.97368V0.5H41.887V4.97368H36.734Z" stroke="white" stroke-opacity="0.1"/>
<path d="M42.3872 20.5264H36.2341V26.0001H42.3872V20.5264Z" fill="#4272B8"/>
<path d="M36.7341 25.5001V21.0264H41.8872V25.5001H36.7341Z" stroke="white" stroke-opacity="0.1"/>
<path d="M0 15.7364V10.2627H18.4591C18.4591 13.2857 16.0084 15.7364 12.9854 15.7364H0Z" fill="#69B3E4"/>
<path d="M0.5 15.2364V10.7627H17.9343C17.6835 13.2748 15.5635 15.2364 12.9854 15.2364H0.5Z" stroke="white" stroke-opacity="0.1"/>
<path d="M42.3873 10.2627H23.9282V15.7364H42.3873V10.2627Z" fill="#459BD5"/>
<path d="M24.4282 15.2364V10.7627H41.8873V15.2364H24.4282Z" stroke="white" stroke-opacity="0.1"/>
<path d="M6.15303 20.5264H0V26.0001H6.15303V20.5264Z" fill="#459BD5"/>
<path d="M0.5 25.5001V21.0264H5.65303V25.5001H0.5Z" stroke="white" stroke-opacity="0.1"/>
<path d="M67.6804 5.47368H49.2242V0H62.2067C65.2302 0 67.6817 2.45017 67.6833 5.47368H67.6804Z" fill="#3A63AE"/>
<path d="M62.2067 0.5C64.7853 0.5 66.9061 2.46122 67.1582 4.97368H49.7242V0.5H62.2067Z" stroke="white" stroke-opacity="0.1"/>
<path d="M67.6835 10.2627C67.6835 13.2857 65.2328 15.7364 62.2098 15.7364H49.2244V10.2627H67.6835Z" fill="#69B3E4"/>
<path d="M67.1586 10.7627C66.9079 13.2748 64.7879 15.2364 62.2098 15.2364H49.7244V10.7627H67.1586Z" stroke="white" stroke-opacity="0.1"/>
<path d="M55.3774 20.5264H49.2244V26.0001H55.3774V20.5264Z" fill="#7BD3F7"/>
<path d="M49.7244 25.5001V21.0264H54.8774V25.5001H49.7244Z" stroke="white" stroke-opacity="0.1"/>
</svg>
