<svg width="196" height="39" viewBox="0 0 196 39" fill="none" xmlns="http://www.w3.org/2000/svg">
<path d="M175 8V7H176V8H175Z" fill="#1C1538"/>
<path d="M177 3.99328C177 2.7756 177.272 1.80414 177.816 1.08338C178.36 0.358145 179.088 0 180 0C180.912 0 181.64 0.358144 182.184 1.0789C182.728 1.79966 183 2.77113 183 3.99328C183 5.21544 182.728 6.1869 182.184 6.91214C181.64 7.63738 180.912 8 180 8C179.092 8 178.364 7.63738 177.816 6.91214C177.272 6.18243 177 5.21097 177 3.99328ZM177.851 3.99328C177.851 5.01847 178.039 5.81533 178.421 6.38836C178.803 6.96139 179.329 7.2479 180 7.2479C180.671 7.2479 181.202 6.96139 181.579 6.38836C181.961 5.81533 182.149 5.01847 182.149 3.99328C182.149 2.96363 181.961 2.16228 181.579 1.59373C181.197 1.02071 180.671 0.734194 180 0.734194C179.329 0.734194 178.798 1.02071 178.421 1.59373C178.039 2.16228 177.851 2.96363 177.851 3.99328Z" fill="#1C1538"/>
<path d="M184 8V0H185.978C186.965 0 187.683 0.166472 188.131 0.504044C188.576 0.841617 188.8 1.37803 188.8 2.11329C188.8 2.63584 188.678 3.0659 188.437 3.40809C188.192 3.75029 187.83 4 187.34 4.15722L189 8H188.144L186.59 4.36994H184.775V8H184ZM185.978 0.744509H184.767V3.63006H185.949C186.675 3.63006 187.201 3.51445 187.524 3.28786C187.846 3.06127 188.009 2.69595 188.009 2.19191C188.009 1.65549 187.866 1.28093 187.577 1.06359C187.287 0.846244 186.757 0.744509 185.978 0.744509Z" fill="#1C1538"/>
<path d="M195.238 7.86577L195.206 7.02013C194.958 7.35123 194.664 7.59731 194.32 7.75839C193.976 7.91946 193.572 8 193.108 8C192.148 8 191.391 7.64653 190.836 6.93512C190.275 6.22819 190 5.26174 190 4.03579C190 2.75615 190.275 1.76286 190.826 1.0604C191.377 0.353465 192.148 0 193.145 0C193.842 0 194.421 0.187918 194.88 0.568231C195.339 0.948544 195.679 1.5123 195.904 2.26846L195.004 2.44295C194.848 1.87472 194.614 1.44966 194.297 1.16331C193.98 0.876957 193.585 0.738256 193.112 0.738256C192.406 0.738256 191.859 1.02013 191.478 1.57942C191.097 2.1387 190.904 2.9396 190.904 3.97763C190.904 5.01118 191.102 5.81655 191.501 6.39373C191.901 6.97092 192.456 7.25727 193.168 7.25727C193.76 7.25727 194.223 7.09172 194.572 6.75615C194.917 6.42505 195.091 5.96868 195.091 5.39597V4.84564H193.255V4.10738H196V7.86577H195.238Z" fill="#1C1538"/>
<path d="M105.781 37.9913C105.569 37.9913 105.402 37.9175 105.238 37.7569C105.075 37.5963 105 37.4314 105 37.2231V0.824672C105 0.57293 105.071 0.381954 105.225 0.22136C105.371 0.069447 105.543 0 105.781 0H117.564C123.005 0 127.277 1.28041 130.26 3.80217C133.222 6.30657 134.793 9.96985 134.943 14.7009C134.978 15.7903 135 17.2356 135 19.0022C135 20.7687 134.982 22.1923 134.943 23.2427C134.572 33.1735 128.985 38 117.851 38H105.781V37.9913ZM114.431 30.8471H117.56C120.119 30.8471 122.056 30.2177 123.319 28.9807C124.572 27.748 125.252 25.7905 125.331 23.1689C125.406 22.0969 125.446 20.6645 125.446 18.9414C125.446 17.2183 125.406 15.8077 125.331 14.7486C125.252 12.2182 124.519 10.2867 123.164 9.03232C121.809 7.7823 119.828 7.1486 117.277 7.1486H114.435V30.8471H114.431Z" fill="#1C1538"/>
<path d="M151.527 39C147.042 39 143.478 37.8202 140.933 35.4997C138.397 33.1835 137.071 29.7439 137 25.2721V23.5458C137.147 19.3124 138.508 15.9509 141.053 13.5784C143.598 11.2015 147.104 10 151.469 10C154.632 10 157.337 10.6202 159.509 11.8477C161.666 13.0666 163.299 14.7668 164.367 16.9008C165.448 19.0652 166 21.5636 166 24.3308V25.7318C166 25.9791 165.924 26.1612 165.76 26.3217C165.595 26.4822 165.404 26.5559 165.155 26.5559H146.281V27.5232C146.321 29.3406 146.77 30.8283 147.611 31.9604C148.501 33.1575 149.783 33.7604 151.411 33.7604C152.457 33.7604 153.32 33.5479 153.983 33.1228C154.583 32.7411 155.162 32.238 155.696 31.6351C156.096 31.2013 156.274 31.1102 156.31 31.0972C156.354 31.0799 156.537 31.0148 157.048 31.0148H164.581C164.772 31.0148 164.923 31.0669 165.052 31.1753C165.172 31.275 165.195 31.3575 165.195 31.4485C165.195 32.2596 164.674 33.2746 163.651 34.4587C162.592 35.6862 161.004 36.7619 158.939 37.6511C156.866 38.5446 154.374 39 151.527 39ZM151.469 15.0661C149.809 15.0661 148.501 15.6473 147.594 16.7967C146.722 17.8984 146.281 19.4339 146.281 21.3597V22.1057H156.719V21.3597C156.719 19.4295 156.265 17.8898 155.371 16.7924C154.441 15.6473 153.128 15.0661 151.469 15.0661Z" fill="#1C1538"/>
<path d="M177.261 39C176.889 39 176.618 38.9303 176.454 38.7909C176.245 38.6123 176.063 38.3423 175.912 37.9851L165.013 11.8755C165.018 11.8755 165 11.8058 165 11.6577C165 11.4487 165.058 11.3006 165.182 11.1786C165.311 11.0523 165.462 11 165.67 11H172.498C173.044 11 173.382 11.2396 173.621 11.7971L180.467 30.2228L187.388 11.7666C187.468 11.5619 187.601 11.3746 187.796 11.196C187.943 11.0653 188.151 11 188.444 11H195.33C195.512 11 195.658 11.061 195.809 11.196C195.925 11.3049 195.987 11.4269 196 11.5924L195.92 11.9147L185.097 37.9894C184.95 38.3379 184.764 38.6036 184.542 38.7778C184.356 38.9259 184.067 39 183.69 39H177.261Z" fill="#1C1538"/>
<path d="M26.9957 8H0V0H19C23.4183 0 27 3.58172 27 8H26.9957Z" fill="#7BD3F7"/>
<path d="M43 0H34V8H43V0Z" fill="#4C72B6"/>
<path d="M43 30H34V38H43V30Z" fill="#7BD3F7"/>
<path d="M62 0H53V8H62V0Z" fill="#4272B8"/>
<path d="M62 30H53V38H62V30Z" fill="#4272B8"/>
<path d="M0 23V15H27C27 19.4183 23.4183 23 19 23H0Z" fill="#69B3E4"/>
<path d="M62 15H35V23H62V15Z" fill="#459BD5"/>
<path d="M9 30H0V38H9V30Z" fill="#459BD5"/>
<path d="M98.9957 8H72V0H90.9957C95.4146 0 98.9976 3.58102 99 8H98.9957Z" fill="#3A63AE"/>
<path d="M99 15C99 19.4183 95.4183 23 91 23H72V15H99Z" fill="#69B3E4"/>
<path d="M81 30H72V38H81V30Z" fill="#7BD3F7"/>
</svg>
