<svg width="30" height="30" viewBox="0 0 30 30" fill="none" xmlns="http://www.w3.org/2000/svg"><path fill-rule="evenodd" clip-rule="evenodd" d="M9.008 13.936c0 1.64-.14 3.689.715 4.791.659.85 1.772 1.25 3.35 1.25 1.44 0 4.445.129 5.65-.228 2.747-.813 2.24-3.977 2.24-6.623 0-1.347-.129-2.167-.773-2.97C19.63 9.46 18.657 9 17.377 9h-4.862c-1.252 0-2.435.632-2.897 1.374-.244.392-.504 1.015-.53 1.572-.034.711-.08 1.246-.08 1.99Zm8.448-2.431c0 .999 1.435.949 1.435 0 0-.814-1.434-.9-1.434 0Zm-2.47 4.789c-.934 0-1.913-.766-1.913-1.621v-.368c0-.902.838-1.621 2.072-1.621 2.336 0 2.474 3.61-.16 3.61Zm-3.029-2.063c0 1.02.104 1.543.974 2.341 1.065.977 2.975 1.049 4.188-.075 1.293-1.198 1.238-2.862.12-3.98-1.795-1.796-5.282-.583-5.282 1.714Z" fill="#DCF6FF"/><rect x=".227" y=".227" width="29.547" height="29.547" rx="2.041" stroke="#DCF6FF" stroke-width=".453"/></svg>