<svg width="196" height="39" viewBox="0 0 196 39" fill="none" xmlns="http://www.w3.org/2000/svg"><path d="M175 8V7h1v1h-1Zm2-4.007c0-1.217.272-2.189.816-2.91C178.36.358 179.088 0 180 0c.912 0 1.64.358 2.184 1.079.544.72.816 1.692.816 2.914 0 1.222-.272 2.194-.816 2.92C181.64 7.636 180.912 8 180 8c-.908 0-1.636-.363-2.184-1.088-.544-.73-.816-1.701-.816-2.919Zm.851 0c0 1.025.188 1.822.57 2.395.382.573.908.86 1.579.86.671 0 1.202-.287 1.579-.86.382-.573.57-1.37.57-2.395 0-1.03-.188-1.83-.57-2.4-.382-.572-.908-.859-1.579-.859-.671 0-1.202.287-1.579.86-.382.568-.57 1.37-.57 2.4ZM184 8V0h1.978c.987 0 1.705.166 2.153.504.445.338.669.874.669 1.61 0 .522-.122.952-.363 1.294-.245.342-.607.592-1.097.75L189 8h-.856l-1.554-3.63h-1.815V8H184Zm1.978-7.255h-1.211V3.63h1.182c.726 0 1.252-.116 1.575-.342.322-.227.485-.592.485-1.096 0-.537-.143-.911-.432-1.128-.29-.218-.82-.32-1.599-.32Zm9.26 7.121-.032-.846a2.343 2.343 0 0 1-.886.738c-.344.161-.748.242-1.212.242-.96 0-1.717-.353-2.272-1.065-.561-.707-.836-1.673-.836-2.9 0-1.279.275-2.272.826-2.975.551-.707 1.322-1.06 2.319-1.06.697 0 1.276.188 1.735.568.459.38.799.944 1.024 1.7l-.9.175c-.156-.568-.39-.993-.707-1.28-.317-.286-.712-.425-1.185-.425-.706 0-1.253.282-1.634.841-.381.56-.574 1.36-.574 2.399 0 1.033.198 1.839.597 2.416.4.577.955.863 1.667.863.592 0 1.055-.165 1.404-.5.345-.332.519-.788.519-1.361v-.55h-1.836v-.739H196v3.759h-.762Zm-89.457 30.125a.731.731 0 0 1-.543-.234.708.708 0 0 1-.238-.534V.825c0-.252.071-.443.225-.604.146-.152.318-.221.556-.221h11.783c5.441 0 9.713 1.28 12.696 3.802 2.962 2.505 4.533 6.168 4.683 10.899.035 1.09.057 2.535.057 4.301 0 1.767-.018 3.19-.057 4.24C134.572 33.174 128.985 38 117.851 38h-12.07v-.009Zm8.65-7.144h3.129c2.559 0 4.496-.63 5.759-1.866 1.253-1.233 1.933-3.19 2.012-5.812.075-1.072.115-2.505.115-4.228 0-1.723-.04-3.133-.115-4.192-.079-2.53-.812-4.462-2.167-5.717-1.355-1.25-3.336-1.883-5.887-1.883h-2.842v23.698h-.004ZM151.527 39c-4.485 0-8.049-1.18-10.594-3.5-2.536-2.316-3.862-5.756-3.933-10.228v-1.726c.147-4.234 1.508-7.595 4.053-9.968 2.545-2.377 6.051-3.578 10.416-3.578 3.163 0 5.868.62 8.04 1.848 2.157 1.219 3.79 2.919 4.858 5.053 1.081 2.164 1.633 4.663 1.633 7.43v1.4c0 .248-.076.43-.24.59a.813.813 0 0 1-.605.235h-18.874v.967c.04 1.818.489 3.305 1.33 4.437.89 1.197 2.172 1.8 3.8 1.8 1.046 0 1.909-.212 2.572-.637a8.191 8.191 0 0 0 1.713-1.488c.4-.434.578-.525.614-.538.044-.017.227-.082.738-.082h7.533c.191 0 .342.052.471.16.12.1.143.183.143.273 0 .812-.521 1.827-1.544 3.01-1.059 1.228-2.647 2.304-4.712 3.193-2.073.894-4.565 1.349-7.412 1.349Zm-.058-23.934c-1.66 0-2.968.581-3.875 1.73-.872 1.102-1.313 2.638-1.313 4.564v.746h10.438v-.746c0-1.93-.454-3.47-1.348-4.568-.93-1.145-2.243-1.726-3.902-1.726ZM177.261 39c-.372 0-.643-.07-.807-.21-.209-.178-.391-.448-.542-.805l-10.899-26.11c.005 0-.013-.07-.013-.217 0-.21.058-.357.182-.48.129-.126.28-.178.488-.178h6.828c.546 0 .884.24 1.123.797l6.846 18.426 6.921-18.456c.08-.205.213-.392.408-.571.147-.13.355-.196.648-.196h6.886c.182 0 .328.061.479.196a.57.57 0 0 1 .191.396l-.08.323-10.823 26.074c-.147.349-.333.615-.555.789-.186.148-.475.222-.852.222h-6.429Z" fill="#1C1538"/><path d="M26.996 8H0V0h19a8 8 0 0 1 8 8h-.004Z" fill="#7BD3F7"/><path d="M43 0h-9v8h9V0Z" fill="#4C72B6"/><path d="M43 30h-9v8h9v-8Z" fill="#7BD3F7"/><path d="M62 0h-9v8h9V0Zm0 30h-9v8h9v-8Z" fill="#4272B8"/><path d="M0 23v-8h27a8 8 0 0 1-8 8H0Z" fill="#69B3E4"/><path d="M62 15H35v8h27v-8ZM9 30H0v8h9v-8Z" fill="#459BD5"/><path d="M98.996 8H72V0h18.996A8.004 8.004 0 0 1 99 8h-.004Z" fill="#3A63AE"/><path d="M99 15a8 8 0 0 1-8 8H72v-8h27Z" fill="#69B3E4"/><path d="M81 30h-9v8h9v-8Z" fill="#7BD3F7"/></svg>