<svg width="134" height="26" viewBox="0 0 134 26" fill="none" xmlns="http://www.w3.org/2000/svg"><mask id="a" fill="#fff"><path d="M119.642 5.473V4.79h.685v.684h-.685Z"/></mask><path d="M119.642 5.473V4.79h.685v.684h-.685Z" fill="#fff"/><path d="M119.642 5.473h-1v1h1v-1Zm0-.684v-1h-1v1h1Zm.685 0h1v-1h-1v1Zm0 .684v1h1v-1h-1Zm.315 0V4.79h-2v.684h2Zm-1 .316h.685v-2h-.685v2Zm-.315-1v.684h2V4.79h-2Zm1-.316h-.685v2h.685v-2Z" fill="#fff" fill-opacity=".1" mask="url(#a)"/><mask id="b" fill="#fff"><path d="M121.01 2.732c0-.833.186-1.498.557-1.99.372-.497.87-.742 1.494-.742.623 0 1.121.245 1.493.738.372.493.558 1.158.558 1.994 0 .836-.186 1.501-.558 1.997-.372.497-.87.745-1.493.745a1.78 1.78 0 0 1-1.494-.745c-.371-.499-.557-1.164-.557-1.997Zm.581 0c0 .702.129 1.247.39 1.639.261.392.621.588 1.08.588.459 0 .821-.196 1.079-.588.261-.392.39-.937.39-1.639 0-.704-.129-1.253-.39-1.642-.261-.392-.62-.588-1.079-.588-.459 0-.822.196-1.08.588-.261.39-.39.938-.39 1.642Z"/></mask><path d="M121.01 2.732c0-.833.186-1.498.557-1.99.372-.497.87-.742 1.494-.742.623 0 1.121.245 1.493.738.372.493.558 1.158.558 1.994 0 .836-.186 1.501-.558 1.997-.372.497-.87.745-1.493.745a1.78 1.78 0 0 1-1.494-.745c-.371-.499-.557-1.164-.557-1.997Zm.581 0c0 .702.129 1.247.39 1.639.261.392.621.588 1.08.588.459 0 .821-.196 1.079-.588.261-.392.39-.937.39-1.639 0-.704-.129-1.253-.39-1.642-.261-.392-.62-.588-1.079-.588-.459 0-.822.196-1.08.588-.261.39-.39.938-.39 1.642Z" fill="#fff"/><path d="m121.567.741.799.602.002-.002-.801-.6Zm0 3.988-.802.598.005.005.797-.603Zm2.573-.358-.832-.554-.003.004.835.55Zm0-3.28-.832.553.002.003.83-.557Zm-2.159 0 .831.556.005-.007-.836-.55Zm.029 1.641c0-.691.154-1.12.356-1.389L120.769.14c-.542.719-.759 1.618-.759 2.593h2Zm.358-1.391c.179-.24.378-.341.693-.341v-2c-.933 0-1.73.389-2.294 1.142l1.601 1.199Zm.693-.341c.315 0 .515.102.695.34l1.597-1.204C124.788-.612 123.993-1 123.061-1v2Zm.695.34c.201.268.356.697.356 1.392h2c0-.977-.218-1.877-.759-2.596l-1.597 1.204Zm.356 1.392c0 .694-.154 1.126-.358 1.398l1.6 1.199c.54-.72.758-1.618.758-2.597h-2Zm-.358 1.398c-.182.242-.382.344-.693.344v2a2.77 2.77 0 0 0 2.293-1.145l-1.6-1.2Zm-.693.344c-.307 0-.509-.1-.696-.347l-1.595 1.205a2.777 2.777 0 0 0 2.291 1.142v-2Zm-.691-.342c-.207-.277-.36-.71-.36-1.4h-2c0 .977.218 1.873.755 2.595l1.605-1.195Zm-1.779-1.4c0 .806.146 1.574.558 2.193l1.665-1.108c-.11-.165-.223-.488-.223-1.085h-2Zm.558 2.193c.44.662 1.108 1.034 1.912 1.034v-2a.273.273 0 0 1-.136-.025.34.34 0 0 1-.111-.117l-1.665 1.108Zm1.912 1.034c.8 0 1.475-.37 1.915-1.038l-1.671-1.1a.318.318 0 0 1-.107.113.277.277 0 0 1-.137.025v2Zm1.912-1.034c.412-.62.557-1.387.557-2.193h-2c0 .597-.113.92-.222 1.085l1.665 1.108Zm.557-2.193c0-.806-.144-1.58-.559-2.199l-1.661 1.114c.106.16.22.483.22 1.085h2Zm-.557-2.196c-.441-.661-1.108-1.034-1.912-1.034v2c.082 0 .119.017.135.026a.32.32 0 0 1 .112.116l1.665-1.108Zm-1.912-1.034c-.801 0-1.475.37-1.915 1.039l1.671 1.099a.32.32 0 0 1 .106-.112.282.282 0 0 1 .138-.026v-2Zm-1.91 1.031c-.415.62-.56 1.393-.56 2.2h2c0-.603.114-.926.221-1.086L121.151.533Z" fill="#fff" fill-opacity=".1" mask="url(#b)"/><mask id="c" fill="#fff"><path d="M125.796 5.474V0h1.352c.675 0 1.165.114 1.472.345.304.23.457.598.457 1.1 0 .358-.083.653-.248.887-.167.234-.415.405-.75.512l1.135 2.63h-.586l-1.062-2.484h-1.241v2.484h-.529Zm1.352-4.965h-.828v1.975h.808c.497 0 .856-.08 1.077-.234.22-.155.331-.405.331-.75 0-.367-.097-.624-.295-.772-.198-.149-.561-.219-1.093-.219Z"/></mask><path d="M125.796 5.474V0h1.352c.675 0 1.165.114 1.472.345.304.23.457.598.457 1.1 0 .358-.083.653-.248.887-.167.234-.415.405-.75.512l1.135 2.63h-.586l-1.062-2.484h-1.241v2.484h-.529Zm1.352-4.965h-.828v1.975h.808c.497 0 .856-.08 1.077-.234.22-.155.331-.405.331-.75 0-.367-.097-.624-.295-.772-.198-.149-.561-.219-1.093-.219Z" fill="#fff"/><path d="M125.796 5.474h-1v1h1v-1Zm0-5.474v-1h-1v1h1Zm2.824.345.605-.796-.003-.003-.602.799Zm.209 1.987.814.581.004-.006-.818-.575Zm-.75.512-.306-.952-1.048.338.436 1.01.918-.396Zm1.135 2.63v1h1.521l-.603-1.397-.918.397Zm-.586 0-.919.393.26.607h.659v-1Zm-1.062-2.484.92-.393-.26-.607h-.66v1Zm-1.241 0v-1h-1v1h1Zm0 2.484v1h1v-1h-1ZM126.32.509v-1h-1v1h1Zm0 1.975h-1v1h1v-1Zm.476 2.99V0h-2v5.474h2Zm-1-4.474h1.352v-2h-1.352v2Zm1.352 0c.607 0 .827.111.871.144l1.203-1.598c-.57-.43-1.331-.546-2.074-.546v2Zm.867.141c.006.004.013.01.024.036a.709.709 0 0 1 .038.269h2c0-.71-.226-1.422-.852-1.897l-1.21 1.592Zm.062.305c0 .199-.044.28-.066.311l1.636 1.15c.308-.438.43-.945.43-1.461h-2Zm-.061.304c-.019.027-.07.087-.243.142l.612 1.904c.497-.16.942-.44 1.258-.883l-1.627-1.163Zm-.855 1.49 1.135 2.63 1.836-.793-1.135-2.629-1.836.793Zm2.053 1.234h-.586v2h.586v-2Zm.334.606-1.062-2.483-1.839.786 1.062 2.484 1.839-.787Zm-1.982-3.09h-1.241v2h1.241v-2Zm-2.241 1v2.484h2V2.99h-2Zm1 1.484h-.529v2h.529v-2Zm.823-4.965h-.828v2h.828v-2Zm-1.828 1v1.975h2V.509h-2Zm1 2.975h.808v-2h-.808v2Zm.808 0c.556 0 1.174-.08 1.652-.417l-1.151-1.635c.031-.022.021-.005-.072.016-.091.02-.23.036-.429.036v2Zm1.652-.417c.558-.392.756-.995.756-1.567h-2c0 .067-.011.071.003.04a.253.253 0 0 1 .037-.058.248.248 0 0 1 .053-.05l1.151 1.635Zm.756-1.567c0-.521-.14-1.155-.694-1.572l-1.202 1.6a.377.377 0 0 1-.111-.139c-.004-.01-.002-.008.001.011a.665.665 0 0 1 .006.1h2Zm-.694-1.572a2.024 2.024 0 0 0-.828-.346 4.513 4.513 0 0 0-.866-.073v2c.229 0 .382.016.478.035.104.02.081.034.014-.017l1.202-1.599Z" fill="#fff" fill-opacity=".1" mask="url(#c)"/><mask id="d" fill="#fff"><path d="m133.478 5.382-.022-.579a1.59 1.59 0 0 1-.605.505 1.94 1.94 0 0 1-.829.166c-.656 0-1.174-.242-1.554-.729-.382-.484-.571-1.145-.571-1.984 0-.875.189-1.555.565-2.035.377-.484.904-.726 1.585-.726.477 0 .873.129 1.186.389.314.26.547.646.7 1.163l-.615.12c-.107-.39-.267-.68-.483-.876-.217-.196-.487-.29-.81-.29-.483 0-.857.192-1.117.575-.261.382-.392.93-.392 1.64 0 .708.134 1.259.408 1.654.273.395.652.59 1.139.59.405 0 .722-.113.96-.342.236-.227.355-.54.355-.931v-.377h-1.256V2.81h1.877v2.572h-.521Z"/></mask><path d="m133.478 5.382-.022-.579a1.59 1.59 0 0 1-.605.505 1.94 1.94 0 0 1-.829.166c-.656 0-1.174-.242-1.554-.729-.382-.484-.571-1.145-.571-1.984 0-.875.189-1.555.565-2.035.377-.484.904-.726 1.585-.726.477 0 .873.129 1.186.389.314.26.547.646.7 1.163l-.615.12c-.107-.39-.267-.68-.483-.876-.217-.196-.487-.29-.81-.29-.483 0-.857.192-1.117.575-.261.382-.392.93-.392 1.64 0 .708.134 1.259.408 1.654.273.395.652.59 1.139.59.405 0 .722-.113.96-.342.236-.227.355-.54.355-.931v-.377h-1.256V2.81h1.877v2.572h-.521Z" fill="#fff"/><path d="m133.456 4.803 1-.038-.108-2.823-1.692 2.262.8.6Zm-2.988-.058.789-.615-.005-.006-.784.621Zm-.006-4.02.787.617.002-.002-.789-.614Zm3.471.827.191.982 1.082-.21-.314-1.057-.959.285Zm-.615.12-.964.264.245.894.91-.177-.191-.982Zm-.295 2.95-.693-.72.693.72Zm.355-1.307h1v-1h-1v1Zm-1.256 0h-1v1h1v-1Zm0-.505v-1h-1v1h1Zm1.877 0h1v-1h-1v1Zm0 2.572v1h1v-1h-1Zm.479-.038-.022-.579-1.999.076.022.579 1.999-.076Zm-1.822-1.14a.61.61 0 0 1-.229.199l.848 1.811c.399-.187.725-.468.982-.812l-1.601-1.198Zm-.229.199a.956.956 0 0 1-.405.07v2a2.94 2.94 0 0 0 1.253-.259l-.848-1.811Zm-.405.07c-.372 0-.589-.118-.765-.343l-1.577 1.23c.584.748 1.402 1.114 2.342 1.114v-2Zm-.77-.349c-.198-.25-.355-.665-.355-1.363h-2c0 .98.22 1.888.787 2.605l1.568-1.242Zm-.355-1.363c0-.746.162-1.176.352-1.419L129.675.11c-.563.719-.778 1.648-.778 2.652h2Zm.354-1.421c.165-.212.385-.34.796-.34v-2c-.951 0-1.785.355-2.374 1.111l1.578 1.229Zm.796-.34c.288 0 .445.073.548.159l1.277-1.54c-.525-.435-1.159-.619-1.825-.619v2Zm.548.159c.12.099.265.29.38.678l1.917-.57C134.7.62 134.38.04 133.872-.38l-1.277 1.54Zm1.148-.589-.615.12.381 1.963.615-.12-.381-1.963Zm.54.837c-.139-.504-.375-.988-.777-1.353l-1.342 1.483c.03.028.115.125.19.4l1.929-.53Zm-.777-1.353c-.426-.385-.946-.549-1.481-.549v2c.063 0 .096.01.109.014.01.004.018.008.03.018l1.342-1.483Zm-1.481-.549c-.798 0-1.488.344-1.944 1.013l1.653 1.125c.066-.096.123-.138.291-.138v-2ZM130.081.518c-.418.614-.565 1.39-.565 2.204h2c0-.608.116-.928.218-1.079L130.081.518Zm-.565 2.204c0 .817.153 1.596.585 2.221l1.645-1.137c-.114-.165-.23-.487-.23-1.084h-2Zm.585 2.221c.464.672 1.155 1.022 1.962 1.022v-2c-.166 0-.235-.04-.317-.159l-1.645 1.137Zm1.962 1.022c.603 0 1.189-.175 1.654-.622l-1.387-1.44c-.013.011-.06.063-.267.063v2Zm1.654-.622c.469-.451.661-1.045.661-1.651h-2a.485.485 0 0 1-.024.171.091.091 0 0 1-.024.04l1.387 1.44Zm.661-1.651v-.377h-2v.377h2Zm-1-1.377h-1.256v2h1.256v-2Zm-.256 1V2.81h-2v.505h2Zm-1 .495h1.877v-2h-1.877v2Zm.877-1v2.572h2V2.81h-2Zm1 1.572h-.521v2h.521v-2Z" fill="#fff" fill-opacity=".1" mask="url(#d)"/><path d="M72.32 25.994a.499.499 0 0 1-.372-.16.484.484 0 0 1-.162-.366V.564a.56.56 0 0 1 .153-.413A.487.487 0 0 1 72.32 0h8.056c3.72 0 6.64.876 8.68 2.601 2.025 1.714 3.099 4.22 3.201 7.458.025.745.04 1.734.04 2.943a81.67 81.67 0 0 1-.04 2.9C92.003 22.699 88.183 26 80.571 26H72.32v-.006Zm5.913-4.888h2.14c1.749 0 3.073-.43 3.936-1.277.857-.844 1.322-2.183 1.376-3.977a42.92 42.92 0 0 0 .079-2.892c0-1.18-.027-2.144-.079-2.869-.054-1.731-.555-3.053-1.481-3.911-.926-.855-2.281-1.289-4.025-1.289h-1.943v16.215h-.003Z" fill="#fff"/><path d="M72.82 25.5v-.006h-.502a.184.184 0 0 1-.032-.031V.564c0-.039.005-.054.005-.055l.001-.002.005-.006L72.32.5h8.055c3.648 0 6.438.86 8.357 2.483 1.893 1.602 2.925 3.962 3.025 7.091.024.74.039 1.723.039 2.928a78.04 78.04 0 0 1-.04 2.882c-.123 3.308-1.109 5.68-2.91 7.237-1.811 1.566-4.531 2.379-8.275 2.379H72.82Zm11.84-5.314c.983-.968 1.467-2.453 1.525-4.309.052-.748.079-1.737.079-2.917 0-1.18-.027-2.155-.08-2.894-.058-1.81-.586-3.276-1.64-4.253h-.001C83.494 4.844 82 4.39 80.179 4.39h-2.443v16.715h.497v.5h2.139c1.823 0 3.297-.448 4.287-1.42Z" stroke="#fff" stroke-opacity=".1"/><path d="M103.594 26c-3.066 0-5.503-.808-7.243-2.396-1.733-1.584-2.64-3.938-2.689-6.997v-1.182c.1-2.896 1.031-5.196 2.771-6.82 1.74-1.626 4.137-2.448 7.121-2.448 2.163 0 4.012.425 5.497 1.264 1.475.834 2.591 1.998 3.321 3.458.74 1.48 1.117 3.19 1.117 5.084v.958a.557.557 0 0 1-.578.564h-12.903v.662c.027 1.243.334 2.261.909 3.036.608.819 1.484 1.231 2.598 1.231.715 0 1.305-.145 1.758-.436a5.58 5.58 0 0 0 1.171-1.018c.274-.297.395-.359.42-.368.03-.012.155-.056.505-.056h5.149c.131 0 .235.035.323.11.082.068.097.124.097.187 0 .555-.356 1.249-1.055 2.06-.724.839-1.81 1.575-3.222 2.183-1.417.612-3.12.923-5.067.923Zm-.04-16.376c-1.134 0-2.029.397-2.649 1.184-.596.753-.897 1.804-.897 3.122v.51h7.136v-.51c0-1.321-.311-2.374-.922-3.125-.636-.784-1.533-1.181-2.668-1.181Z" fill="#fff"/><path d="M96.775 8.971c1.625-1.52 3.888-2.314 6.779-2.314 2.1 0 3.859.412 5.251 1.2 1.392.786 2.436 1.877 3.12 3.245.7 1.403 1.064 3.034 1.064 4.86v.96c0 .016-.002.026-.002.03l-.001.003a.049.049 0 0 1-.011.012.083.083 0 0 1-.013.011l-.003.002c-.001 0-.013.005-.048.005H99.508v1.172c.029 1.32.356 2.446 1.008 3.324.713.96 1.746 1.433 2.999 1.433.778 0 1.471-.158 2.027-.515a6.085 6.085 0 0 0 1.273-1.104c.123-.132.201-.202.244-.235l.005-.005c.044-.008.138-.02.305-.02h5.047c-.075.363-.343.872-.912 1.53-.659.765-1.673 1.463-3.04 2.052h-.001c-1.341.579-2.974.882-4.869.882-2.98 0-5.283-.783-6.906-2.264-1.603-1.465-2.478-3.67-2.526-6.633v-1.168c.099-2.791.992-4.951 2.612-6.463Zm10.26 12.09h.004-.004l-.002.001h.002Zm.609-7.131c0-1.394-.328-2.573-1.034-3.44-.743-.916-1.792-1.366-3.056-1.366-1.263 0-2.312.45-3.042 1.374-.688.87-1.005 2.043-1.005 3.432v1.01h8.137v-1.01Z" stroke="#fff" stroke-opacity=".1"/><path d="M121.189 25.999c-.255 0-.44-.048-.552-.143-.143-.123-.267-.307-.37-.552L112.816 7.44c.003 0-.01-.048-.01-.15 0-.142.04-.244.125-.327a.44.44 0 0 1 .334-.122h4.668c.373 0 .604.164.767.545l4.681 12.607 4.731-12.628a1.05 1.05 0 0 1 .279-.39c.101-.09.243-.134.444-.134h4.707c.124 0 .224.042.328.134a.392.392 0 0 1 .13.271l-.054.22-7.4 17.841c-.1.239-.228.42-.379.54-.128.101-.325.152-.583.152h-4.395Z" fill="#fff"/><path d="m123.849 20.169 4.73-12.624a.53.53 0 0 1 .14-.192h.002a.416.416 0 0 1 .114-.012h4.621l-7.371 17.773c-.079.186-.162.288-.227.34l-.002.001s-.015.01-.057.022a.882.882 0 0 1-.215.022h-4.395a.843.843 0 0 1-.235-.03 1 1 0 0 1-.226-.358l-.001-.001-7.411-17.77h4.617c.11 0 .152.024.173.038.024.018.073.064.13.195l4.676 12.594.466 1.257.471-1.255Zm-3.582 5.135-7.259-17.402 13.159 17.945c-.128.101-.325.152-.583.152h-4.395c-.255 0-.44-.048-.552-.143-.143-.123-.267-.307-.37-.552Z" stroke="#fff" stroke-opacity=".1"/><path d="M18.456 5.474H0V0h12.985a5.474 5.474 0 0 1 5.474 5.474h-.003Z" fill="#7BD3F7"/><path d="M12.985.5a4.974 4.974 0 0 1 4.95 4.474H.5V.5h12.485Z" stroke="#fff" stroke-opacity=".1"/><path d="M29.398 0h-6.153v5.474h6.153V0Z" fill="#4C72B6"/><path d="M23.745 4.974V.5h5.153v4.474h-5.153Z" stroke="#fff" stroke-opacity=".1"/><path d="M29.398 20.526h-6.153V26h6.153v-5.474Z" fill="#7BD3F7"/><path d="M23.745 25.5v-4.474h5.153V25.5h-5.153Z" stroke="#fff" stroke-opacity=".1"/><path d="M42.387 0h-6.153v5.474h6.153V0Z" fill="#4272B8"/><path d="M36.734 4.974V.5h5.153v4.474h-5.153Z" stroke="#fff" stroke-opacity=".1"/><path d="M42.387 20.526h-6.153V26h6.153v-5.474Z" fill="#4272B8"/><path d="M36.734 25.5v-4.474h5.153V25.5h-5.153Z" stroke="#fff" stroke-opacity=".1"/><path d="M0 15.736v-5.473h18.46a5.474 5.474 0 0 1-5.475 5.473H0Z" fill="#69B3E4"/><path d="M.5 15.236v-4.473h17.434a4.974 4.974 0 0 1-4.949 4.473H.5Z" stroke="#fff" stroke-opacity=".1"/><path d="M42.387 10.263H23.928v5.473h18.46v-5.473Z" fill="#459BD5"/><path d="M24.428 15.236v-4.473h17.46v4.473h-17.46Z" stroke="#fff" stroke-opacity=".1"/><path d="M6.153 20.526H0V26h6.153v-5.474Z" fill="#459BD5"/><path d="M.5 25.5v-4.474h5.153V25.5H.5Z" stroke="#fff" stroke-opacity=".1"/><path d="M67.68 5.474H49.224V0h12.983a5.477 5.477 0 0 1 5.476 5.474h-.003Z" fill="#3A63AE"/><path d="M62.207.5c2.578 0 4.7 1.961 4.951 4.474H49.724V.5h12.483Z" stroke="#fff" stroke-opacity=".1"/><path d="M67.683 10.263a5.474 5.474 0 0 1-5.473 5.473H49.224v-5.473h18.46Z" fill="#69B3E4"/><path d="M67.159 10.763a4.974 4.974 0 0 1-4.95 4.473H49.725v-4.473H67.16Z" stroke="#fff" stroke-opacity=".1"/><path d="M55.377 20.526h-6.153V26h6.153v-5.474Z" fill="#7BD3F7"/><path d="M49.724 25.5v-4.474h5.153V25.5h-5.153Z" stroke="#fff" stroke-opacity=".1"/></svg>